<svg width="896" height="896" xmlns="http://www.w3.org/2000/svg"><defs><linearGradient x1="0%" y1="0%" y2="100%" id="a"><stop stop-color="#FF8E64" offset="0%"/><stop stop-color="#FFE641" offset="100%"/></linearGradient></defs><path d="M288.283 829.048C351.506 873.741 428.686 900 512 900c83.65 0 161.118-26.472 224.483-71.495L673 681H352l-63.717 148.048zm-52.999-45.07L481 225h62l245.906 558.786C857.62 713.784 900 617.84 900 512c0-214.286-173.714-388-388-388S124 297.714 124 512c0 105.939 42.457 201.96 111.284 271.979zM512 960C264.576 960 64 759.424 64 512S264.576 64 512 64s448 200.576 448 448-200.576 448-448 448zM378 623h270L513 308 378 623z" transform="translate(-64 -64)" fill="url(#a)" fill-rule="evenodd"/></svg>