<svg xmlns="http://www.w3.org/2000/svg" xmlns:xlink="http://www.w3.org/1999/xlink" width="12" height="11" viewBox="0 0 12 11"><defs><path id="r4s0a" d="M703.71 7461.01c-.33.3-.6.53-.76.65-.55.45-1.35.45-1.9 0a25.72 25.72 0 0 1-3.9-4.02 5.23 5.23 0 0 1-1.15-2.94c-.04-1 .35-1.97 1.08-2.67a3.76 3.76 0 0 1 4.92-.22 3.75 3.75 0 0 1 4.92.22c.72.7 1.11 1.67 1.08 2.66a5.2 5.2 0 0 1-1.15 2.95c-.46.63-.96 1.23-1.5 1.8-.53.55-1.08 1.08-1.64 1.58z"/></defs><g><g transform="translate(-696 -7451)"><use fill="#ff4876" xlink:href="#r4s0a"/></g></g></svg>