<svg xmlns="http://www.w3.org/2000/svg" xmlns:xlink="http://www.w3.org/1999/xlink" width="24" height="21" viewBox="0 0 24 21"><defs><path id="9jq4a" d="M185.99 2197H168A3 3 0 0 1 165 2194v-7.51c0-.16.03-.32.07-.48l2.77-8.3a2.62 2.62 0 0 1 2.42-1.72h13.48c1.09.01 2.05.7 2.42 1.73l2.76 8.3c.05.14.08.3.08.47v7.51a3 3 0 0 1-3.01 2.99zm-2.57-18h-12.84l-2 6h4.18a1.52 1.52 0 0 1 1.31.82l.08.13.02.05a3 3 0 0 0 5.66 0l.02-.05.08-.13a1.4 1.4 0 0 1 .64-.64l.15-.08c.16-.06.34-.1.52-.1h4.18zm2.58 9h-3.81a5.98 5.98 0 0 1-10.38 0H168v6.01l.01-.01H186l.01.01z"/><linearGradient id="9jq4b" x1="166" x2="188" y1="2176" y2="2197" gradientUnits="userSpaceOnUse"><stop offset="0" stop-color="#f33573"/><stop offset="1" stop-color="#ffc066"/></linearGradient></defs><g><g transform="translate(-165 -2176)"><use fill="url(#9jq4b)" xlink:href="#9jq4a"/></g></g></svg>