<svg xmlns="http://www.w3.org/2000/svg" xmlns:xlink="http://www.w3.org/1999/xlink" width="16" height="16" viewBox="0 0 16 16"><defs><path id="2wvqa" d="M1288.37 7463h-6.74a4.62 4.62 0 0 1-4.63-4.63v-6.74a4.62 4.62 0 0 1 4.63-4.63h6.74a4.62 4.62 0 0 1 4.63 4.63v6.74a4.62 4.62 0 0 1-4.63 4.63zm3.18-11.25a3.3 3.3 0 0 0-3.3-3.3h-6.5a3.3 3.3 0 0 0-3.3 3.3v6.5a3.3 3.3 0 0 0 3.3 3.3h6.5a3.3 3.3 0 0 0 3.3-3.3zm-2.34-.06a.97.97 0 1 1 0-1.93.97.97 0 0 1 0 1.93zm-4.21 7.38a4.07 4.07 0 1 1 0-8.14 4.07 4.07 0 0 1 0 8.14zm0-6.7a2.62 2.62 0 1 0 0 5.25 2.62 2.62 0 0 0 0-5.24z"/></defs><g><g opacity=".6" transform="translate(-1277 -7447)"><use fill="#999ea8" xlink:href="#2wvqa"/></g></g></svg>