<svg xmlns="http://www.w3.org/2000/svg" xmlns:xlink="http://www.w3.org/1999/xlink" width="24" height="24" viewBox="0 0 24 24"><defs><path id="ddova" d="M1131.93 1172.97a1.5 1.5 0 0 1-1.44 1.03h-7.5a3 3 0 1 1-5.99 0h-7.5a1.5 1.5 0 0 1-.9-2.7 5.98 5.98 0 0 0 2.4-4.8v-4.5a9 9 0 1 1 18 0v4.5c0 1.89.89 3.67 2.4 4.8.52.39.73 1.06.53 1.67zm-5.68-6.46v-4.5a6.25 6.25 0 0 0-12.5 0v4.5c0 1.58-.42 3.14-1.24 4.5h15a8.74 8.74 0 0 1-1.26-4.5z"/></defs><g><g transform="translate(-1108 -1153)"><use fill="#fff" xlink:href="#ddova"/></g></g></svg>