<svg xmlns="http://www.w3.org/2000/svg" xmlns:xlink="http://www.w3.org/1999/xlink" width="24" height="24" viewBox="0 0 24 24"><defs><path id="wihha" d="M331.26 1162h-6.8c-.83 0-1.03-.47-.43-1.06l2.31-2.3a9.05 9.05 0 0 0-15.35 5.21s-.18 1.15-1.48 1.15a1.5 1.5 0 0 1-1.47-1.83 12.04 12.04 0 0 1 11.9-10.17c3.34 0 6.35 1.34 8.53 3.52l2.47-2.46c.59-.59 1.06-.38 1.06.43v6.78c0 .4-.35.73-.74.73zm-22.52 6h6.8c.83 0 1.03.47.43 1.07l-2.31 2.3a9.03 9.03 0 0 0 6.4 2.63c4.6 0 8.4-3.42 8.96-7.85 0 0 .17-1.15 1.48-1.15a1.5 1.5 0 0 1 1.46 1.83 12.04 12.04 0 0 1-11.9 10.17c-3.34 0-6.35-1.34-8.53-3.51l-2.47 2.46c-.59.58-1.06.37-1.06-.43v-6.78c0-.41.35-.74.74-.74z"/></defs><g><g transform="translate(-308 -1153)"><use fill="#fff" xlink:href="#wihha"/></g></g></svg>