<svg xmlns="http://www.w3.org/2000/svg" xmlns:xlink="http://www.w3.org/1999/xlink" width="16" height="13" viewBox="0 0 16 13"><defs><path id="gsqxa" d="M1213.37 7452.66c0 4.34-3.3 9.34-9.34 9.34a9.3 9.3 0 0 1-5.03-1.47c.26.02.52.04.78.04 1.49 0 2.93-.5 4.08-1.4a3.28 3.28 0 0 1-3.07-2.28 3.22 3.22 0 0 0 1.49-.06 3.28 3.28 0 0 1-2.64-3.22c.46.21.97.35 1.5.37a3.29 3.29 0 0 1-1.03-4.38 9.31 9.31 0 0 0 6.77 3.43 3.28 3.28 0 0 1 5.6-3 6.45 6.45 0 0 0 2.08-.79c-.24.76-.75 1.4-1.45 1.81a6.54 6.54 0 0 0 1.89-.51c-.44.65-1 1.23-1.64 1.7l.01.42z"/></defs><g><g opacity=".6" transform="translate(-1199 -7449)"><use fill="#999ea8" xlink:href="#gsqxa"/></g></g></svg>